# xmcd CD database file
#
# Track frame offsets:
#	150
#	29642
#	55482
#	87152
#	109272
#	136310
#	162545
#	204435
#	223695
#	249634
#
# Disc length: 3568 seconds
#
# Revision: 0
# Processed by: cddbd v1.5.2PL0 Copyright (c) Steve Scherf et al.
# Submitted via: CDex 1.70beta1
#
DISCID=960dee0a
DTITLE=藤田ゆかり - Black Eyes
DYEAR=2006
DGENRE=Jazz
TTITLE0=Ballade No.4(Chopin Op.52)
TTITLE1=Black Eyes
TTITLE2=NewYork Connection
TTITLE3=Invitation
TTITLE4=Filter
TTITLE5=Tears Of You
TTITLE6=Night And Day
TTITLE7=Summertime
TTITLE8=Oh,Lady Be Good!
TTITLE9=Beautiful Love
EXTD=YEAR: 2006
EXTT0=
EXTT1=
EXTT2=
EXTT3=
EXTT4=
EXTT5=
EXTT6=
EXTT7=
EXTT8=
EXTT9=
PLAYORDER=
